{"title":"Admission.2013.BRRip XViD juggs","uid":8626807,"size":737626719,"categoryP":"video","categoryS":"movies","magnet":"?xt=urn:btih:3d7ff0995cb40323da54f8b258eb8576eba48aa2&amp;dn=Admission.2013.BRRip+XViD+juggs&amp;tr=udp%3A%2F%2Ftracker.openbittorrent.com%3A80&amp;tr=udp%3A%2F%2Fopen.demonii.com%3A1337&amp;tr=udp%3A%2F%2Ftracker.coppersurfer.tk%3A6969&amp;tr=udp%3A%2F%2Fexodus.desync.com%3A6969","seeders":2,"leechers":0,"uploader":"juggs99","files":3,"time":1372528127,"description":"Source : PHD(Thanks)\n &lt;a href=&quot;\nhttp://www.imdb.com/title/tt1814621/&quot; rel=&quot;nofollow&quot; target=&quot;_NEW&quot;&gt;\nhttp://www.imdb.com/title/tt1814621/&lt;/a&gt;\n\nFormat : AVI\nFormat/Info : Audio Video Interleave\nFile size : 697 MiB\nDuration : 1h 47mn\nOverall bit rate : 910 Kbps\nWriting library : VirtualDub build 32842/release\n\nVideo\nID : 0\nFormat : MPEG-4 Visual\nFormat profile : Advanced Simple@L5\nFormat settings, BVOP : 2\nFormat settings, QPel : No\nFormat settings, GMC : No warppoints\nFormat settings, Matrix : Default (H.263)\nMuxing mode : Packed bitstream\nCodec ID : XVID\nCodec ID/Hint : XviD\nDuration : 1h 47mn\nBit rate : 772 Kbps\nWidth : 640 pixels\nHeight : 272 pixels\nDisplay aspect ratio : 2.35:1\nFrame rate : 23.976 fps\nColor space : YUV\nChroma subsampling : 4:2:0\nBit depth : 8 bits\nScan type : Progressive\nCompression mode : Lossy\nBits/(Pixel*Frame) : 0.185\nStream size : 592 MiB (85%)\nWriting library : XviD 1.2.1 (UTC 2008-12-04)\n\nAudio\nID : 1\nFormat : MPEG Audio\nFormat version : Version 1\nFormat profile : Layer 3\nMode : Joint stereo\nMode extension : MS Stereo\nCodec ID : 55\nCodec ID/Hint : MP3\nDuration : 1h 47mn\nBit rate mode : Constant\nBit rate : 128 Kbps\nChannel(s) : 2 channels\nSampling rate : 44.1 KHz\nCompression mode : Lossy\nStream size : 98.1 MiB (14%)\nAlignment : Split accross interleaves\nInterleave, duration : 42 ms (1.00 video frame)\nInterleave, preload duration : 500 ms\nWriting library : LAME3.98\n\nPlot\nA Princeton admissions officer who is up for a major promotion takes a professional risk after she meets a college-bound alternative school kid who just might be the son she gave up years ago in a secret adoption.\n &lt;a href=&quot;\nhttp://img208.imageshack.us/img208/4830/b3vg.png&quot; rel=&quot;nofollow&quot; target=&quot;_NEW&quot;&gt;\nhttp://img208.imageshack.us/img208/4830/b3vg.png&lt;/a&gt; &lt;a href=&quot;\nhttp://img405.imageshack.us/img405/4420/svq.png&quot; rel=&quot;nofollow&quot; target=&quot;_NEW&quot;&gt;\nhttp://img405.imageshack.us/img405/4420/svq.png&lt;/a&gt; &lt;a href=&quot;\nhttp://img13.imageshack.us/img13/2034/whp3.png&quot; rel=&quot;nofollow&quot; target=&quot;_NEW&quot;&gt;\nhttp://img13.imageshack.us/img13/2034/whp3.png&lt;/a&gt;","torrent":{"xt":"urn:btih:3d7ff0995cb40323da54f8b258eb8576eba48aa2","amp;dn":"Admission.2013.BRRip+XViD+juggs","amp;tr":["udp%3A%2F%2Ftracker.openbittorrent.com%3A80","udp%3A%2F%2Fopen.demonii.com%3A1337","udp%3A%2F%2Ftracker.coppersurfer.tk%3A6969","udp%3A%2F%2Fexodus.desync.com%3A6969"],"infoHash":"3d7ff0995cb40323da54f8b258eb8576eba48aa2","infoHashBuffer":{"type":"Buffer","data":[61,127,240,153,92,180,3,35,218,84,248,178,88,235,133,118,235,164,138,162]},"announce":[],"urlList":[]}}